HIERARCHY
ROOT Hips
{
	OFFSET -3.958830 18.904000 13.208200
	CHANNELS 6 Xposition Yposition Zposition Zrotation Yrotation Xrotation 
	JOINT LHipJoint
	{
		OFFSET 0.000000 0.000000 0.000000
		CHANNELS 3 Zrotation Yrotation Xrotation
		JOINT LeftUpLeg
		{
			OFFSET 1.800000 -1.400000 0.085000
			CHANNELS 3 Zrotation Yrotation Xrotation
			JOINT LeftLeg
			{
				OFFSET 2.215000 -6.000000 0.000000
				CHANNELS 3 Zrotation Yrotation Xrotation
				JOINT LeftFoot
				{
					OFFSET 2.500000 -6.900000 0.000000
					CHANNELS 3 Zrotation Yrotation Xrotation
					JOINT LeftToeBase
					{
						OFFSET 0.200000 -0.500000 1.950000
						CHANNELS 3 Zrotation Yrotation Xrotation
						End Site
						{
							OFFSET 0.000000 0.000000 0.000000
						}
					}
				}
			}
		}
	}
	JOINT RHipJoint
	{
		OFFSET 0.000000 0.000000 0.000000
		CHANNELS 3 Zrotation Yrotation Xrotation
		JOINT RightUpLeg
		{
			OFFSET -1.800000 -1.400000 0.085000
			CHANNELS 3 Zrotation Yrotation Xrotation
			JOINT RightLeg
			{
				OFFSET -2.215000 -6.000000 0.000000
				CHANNELS 3 Zrotation Yrotation Xrotation
				JOINT RightFoot
				{
					OFFSET -2.500000 -6.900000 0.000000
					CHANNELS 3 Zrotation Yrotation Xrotation
					JOINT RightToeBase
					{
						OFFSET -0.200000 -0.500000 1.950000
						CHANNELS 3 Zrotation Yrotation Xrotation
						End Site
						{
							OFFSET 0.000000 0.000000 0.000000
						}
					}
				}
			}
		}
	}
	JOINT LowerBack
	{
		OFFSET 0.000000 0.000000 0.000000
		CHANNELS 3 Zrotation Yrotation Xrotation
		JOINT Spine
		{
			OFFSET -0.087000 1.940000 -0.288900
			CHANNELS 3 Zrotation Yrotation Xrotation
			JOINT Spine1
			{
				OFFSET 0.000000 1.950000 0.060000
				CHANNELS 3 Zrotation Yrotation Xrotation
				JOINT Neck
				{
					OFFSET 0.000000 0.000000 0.000000
					CHANNELS 3 Zrotation Yrotation Xrotation
					JOINT Neck1
					{
						OFFSET 0.000000 1.600000 0.340000
						CHANNELS 3 Zrotation Yrotation Xrotation
						JOINT Head
						{
							OFFSET 0.000000 1.667000 -0.240000
							CHANNELS 3 Zrotation Yrotation Xrotation
							End Site
							{
								OFFSET 0.000000 0.000000 0.000000
							}
						}
					}
				}
				JOINT LeftShoulder
				{
					OFFSET 0.000000 0.000000 0.000000
					CHANNELS 3 Zrotation Yrotation Xrotation
					JOINT LeftArm
					{
						OFFSET 2.700000 1.550000 -0.730000
						CHANNELS 3 Zrotation Yrotation Xrotation
						JOINT LeftForeArm
						{
							OFFSET 5.450000 0.000000 0.000000
							CHANNELS 3 Zrotation Yrotation Xrotation
							JOINT LeftHand
							{
								OFFSET 3.450000 0.000000 0.000000
								CHANNELS 3 Zrotation Yrotation Xrotation
								JOINT LeftHandIndex1
								{
									OFFSET 0.750000 0.000000 0.000000
									CHANNELS 3 Zrotation Yrotation Xrotation
									End Site
									{
										OFFSET 0.000000 0.000000 0.000000
									}
								}
							}
						}
					}
				}
				JOINT RightShoulder
				{
					OFFSET 0.000000 0.000000 0.000000
					CHANNELS 3 Zrotation Yrotation Xrotation
					JOINT RightArm
					{
						OFFSET -2.700000 1.550000 -0.730000
						CHANNELS 3 Zrotation Yrotation Xrotation
						JOINT RightForeArm
						{
							OFFSET -5.450000 0.000000 0.000000
							CHANNELS 3 Zrotation Yrotation Xrotation
							JOINT RightHand
							{
								OFFSET -3.450000 0.000000 0.000000
								CHANNELS 3 Zrotation Yrotation Xrotation
								JOINT RightHandIndex1
								{
									OFFSET -0.750000 0.000000 0.000000
									CHANNELS 3 Zrotation Yrotation Xrotation
									End Site
									{
										OFFSET 0.000000 0.000000 0.000000
									}
								}
							}
						}
					}
				}
			}
		}
	}
}
MOTION
Frames: 7
Frame Time: 0.016667
0.586470 17.495720 0.832060 -20.753962 -3.374473 -1.574968 -14.618265 10.471247 1.781233 14.498970 -0.675909 -3.207652 -3.504499 3.526055 -1.655356 -0.331724 4.196524 3.453941 0.236050 0.157400 -0.042030 19.182754 -9.421059 6.191922 -37.550489 2.672673 -33.640932 105.518528 -35.952261 13.635470 -2.131805 -11.026287 0.808271 0.356720 0.565350 0.093960 -5.638775 2.377009 -8.854909 46.087664 -6.350927 5.790057 -15.185067 0.847936 15.252639 4.658248 -0.337696 -15.180212 4.315948 -23.372311 15.763572 -8.107160 -20.381050 -1.276730 -3.083428 -14.743684 8.421268 3.828263 7.174402 0.493658 18.112294 -0.200771 -0.263295 -4.501082 2.912625 -0.186850 0.427000 -0.455640 0.240360 -7.314556 21.009323 9.529742 5.590267 12.990734 -15.895016 -60.812028 12.837365 -14.817697 2.593690 -2.424630 -0.226110 0.298620 0.031130 0.100360 
0.566510 17.490200 0.797520 -20.446529 -3.126170 -1.923131 -14.616552 10.475592 1.789846 14.006074 -0.643328 -2.963858 -2.993808 3.408313 -2.015787 -0.310874 4.177669 3.485343 0.234150 0.175150 -0.095780 19.176312 -9.509303 6.126649 -37.145550 2.684541 -33.125995 105.005199 -36.605248 14.195056 -2.117600 -11.117887 0.783304 0.381180 0.631510 0.100860 -5.630964 2.445799 -8.844774 45.932210 -7.068388 5.967449 -15.642731 0.592623 16.276410 4.789941 -1.059144 -15.510520 3.542833 -22.632454 15.264631 -7.210780 -20.509520 -0.878240 -1.299935 -13.510506 7.716588 1.361172 6.541595 -0.029553 20.049288 0.037446 -0.253203 -4.578849 2.978697 -0.252370 0.465970 -0.502720 0.269390 -9.178764 21.039932 10.245963 5.037941 12.415567 -16.222086 -59.148439 9.635536 -13.225775 2.682554 -2.517371 -0.219760 0.307940 0.039020 0.141260 
0.544290 17.478440 0.787030 -20.063377 -5.420613 -0.319931 -14.621442 10.461013 1.784809 13.805869 -0.758492 -4.002042 -3.566176 3.414301 -1.690365 -0.369742 4.116668 3.490810 0.255750 0.191410 -0.038950 19.184228 -9.474652 6.169539 -37.339479 2.986526 -35.681010 104.971296 -38.426246 15.303603 -2.182027 -11.304017 0.737940 0.392240 0.604060 0.117730 -5.663592 2.466045 -8.817761 44.781458 -6.100126 5.931133 -14.576593 0.912489 14.974184 4.749233 -0.657807 -14.971937 3.957125 -22.310800 15.198847 -8.659520 -19.059530 -0.754040 -2.988919 -13.666583 8.232379 4.062916 8.699585 0.735182 17.803335 -0.307004 -0.232008 -4.563742 2.924260 -0.224160 0.478480 -0.473700 0.260690 -7.531695 20.160334 9.138146 1.952182 12.741262 -14.596244 -56.903525 9.731812 -12.114450 2.618043 -2.456353 -0.226820 0.299210 0.020350 0.107450 
0.519230 17.469940 0.765740 -19.677116 -6.785429 0.478426 -14.620801 10.483710 1.807848 13.620478 -0.838874 -4.599416 -3.904265 3.410063 -1.508790 -0.426109 4.084838 3.485163 0.292340 0.223230 0.013160 19.180991 -9.556376 6.077477 -37.228442 3.188201 -37.326083 103.128055 -42.087462 18.067587 -2.247358 -11.574464 0.652379 0.422270 0.580970 0.121840 -5.673237 2.488762 -8.752537 43.633630 -5.494082 6.037165 -13.645104 0.911768 14.387222 4.692914 -0.408351 -14.548296 4.200204 -22.011894 15.144184 -9.134900 -18.315930 -1.178580 -3.567499 -13.567775 8.322940 6.668719 8.755054 1.284326 14.550972 0.854643 -0.308270 -4.595402 2.831024 -0.203900 0.477170 -0.458540 0.251720 -6.830692 19.304706 8.496834 -0.740905 12.865420 -13.336358 -53.619925 7.293626 -10.063082 2.609548 -2.422763 -0.233890 0.301160 0.006790 0.081180 
0.486930 17.460080 0.743010 -19.202476 -7.616784 1.049055 -14.622017 10.515625 1.820437 13.372075 -0.901658 -5.156702 -4.108536 3.410713 -1.293722 -0.462202 4.051202 3.491487 0.300610 0.226090 0.029960 19.173132 -9.607433 6.006920 -36.713542 3.487514 -38.120371 100.264829 -44.476476 20.734715 -2.270844 -11.744024 0.599675 0.432630 0.582110 0.119250 -5.669695 2.461709 -8.693904 42.423152 -5.175493 6.092069 -12.900000 0.764445 13.927062 4.642005 -0.382370 -14.172266 4.068597 -21.613388 15.260143 -9.177120 -17.900510 -1.352110 -3.629463 -13.226236 8.104384 7.351128 8.044321 1.151776 14.161332 2.585117 -0.325989 -4.653206 2.785828 -0.196930 0.480570 -0.460840 0.246810 -6.645267 18.513558 8.178927 -2.897499 12.848931 -12.266772 -50.592953 5.443166 -8.513474 2.608888 -2.381255 -0.244090 0.311020 0.008250 0.069410 
0.460440 17.454030 0.717050 -19.047202 -8.499837 1.197697 -14.627177 10.578199 1.848541 13.377790 -0.891321 -5.270429 -4.175053 3.435194 -1.183872 -0.472221 4.064963 3.483649 0.310550 0.242870 0.040130 19.145324 -9.629838 5.952874 -35.447816 4.281771 -38.063106 96.925144 -45.557163 23.238354 -2.291992 -11.877343 0.547775 0.446390 0.588580 0.129130 -5.630081 2.374974 -8.666406 41.952735 -5.265215 6.697932 -12.836412 0.679653 13.666035 4.876064 -0.499165 -14.028371 3.795304 -20.928592 15.344904 -9.172960 -17.258610 -1.733420 -4.038241 -12.570311 7.710108 8.578988 8.435505 1.285854 14.028276 2.663377 -0.357437 -4.679281 2.767335 -0.196700 0.488580 -0.453120 0.246720 -6.712902 18.028520 8.282692 -4.995689 12.336599 -11.497992 -47.532688 3.742793 -7.250319 2.629629 -2.346173 -0.243470 0.319880 0.009790 0.068320 
0.434010 17.450730 0.691090 -18.931896 -9.089703 1.198056 -14.637018 10.678178 1.885651 13.531300 -0.865320 -5.453663 -4.262684 3.502010 -0.992693 -0.494539 4.090173 3.466371 0.285860 0.204100 0.045020 19.105141 -9.627974 5.884941 -33.872751 5.072273 -37.378202 93.554879 -45.850932 25.344932 -2.295018 -11.961279 0.523796 0.425240 0.576450 0.119190 -5.561741 2.181471 -8.643915 41.494922 -5.394463 7.416915 -13.011484 0.665747 13.199328 5.158845 -0.368407 -13.952239 3.712150 -20.616269 15.924193 -9.518820 -16.764680 -1.825530 -4.080444 -11.889946 7.304149 9.784318 8.482207 1.341769 13.696351 2.579546 -0.396309 -4.689252 2.709439 -0.163730 0.483710 -0.449560 0.224500 -7.321699 17.243194 8.570674 -6.259893 11.532734 -10.514771 -44.477948 2.663856 -6.163657 2.633162 -2.273163 -0.264920 0.326050 0.028610 0.041700 
